inDegrees=no
num_controls=7
num_derivatives=13
num_iterations=138
num_multipliers=7
num_parameters=0
num_slacks=7
num_states=26
objective=5.269887
objective_accelerations=0.721038
objective_balance=0.017569
objective_effort=0.176435
objective_height=4.304639
objective_ligament=0.050205
solver_duration=1530.423547
status=Solve_Succeeded
success=true
DataType=double
version=3
OpenSimVersion=4.4-2022-07-23-0e9fedc
endheader
time	/jointset/ground_pelvis/pelvis_tilt/value	/jointset/ground_pelvis/pelvis_tx/value	/jointset/ground_pelvis/pelvis_ty/value	/jointset/hip_l/hip_flexion_l/value	/jointset/hip_l/hip_adduction_l/value	/jointset/hip_l/hip_rotation_l/value	/jointset/back/lumbar_extension/value	/jointset/patellofemoral_l/patellar_flexion_l/value	/jointset/knee_l/knee_flexion_l/value	/jointset/knee_l/knee_adduction_l/value	/jointset/knee_l/knee_rotation_l/value	/jointset/ankle_l/ankle_angle_l/value	/jointset/subtalar_l/subtalar_angle_l/value	/jointset/ground_pelvis/pelvis_tilt/speed	/jointset/ground_pelvis/pelvis_tx/speed	/jointset/ground_pelvis/pelvis_ty/speed	/jointset/hip_l/hip_flexion_l/speed	/jointset/hip_l/hip_adduction_l/speed	/jointset/hip_l/hip_rotation_l/speed	/jointset/back/lumbar_extension/speed	/jointset/patellofemoral_l/patellar_flexion_l/speed	/jointset/knee_l/knee_flexion_l/speed	/jointset/knee_l/knee_adduction_l/speed	/jointset/knee_l/knee_rotation_l/speed	/jointset/ankle_l/ankle_angle_l/speed	/jointset/subtalar_l/subtalar_angle_l/speed	/forceset/tau_hip_flexion_l	/forceset/tau_hip_adduction_l	/forceset/tau_hip_rotation_l	/forceset/tau_knee_flexion_l	/forceset/tau_ankle_angle_l	/forceset/tau_subtalar_angle_l	/forceset/tau_lumbar_extension	lambda_cid13_p0	lambda_cid13_p1	lambda_cid13_p2	lambda_cid13_p3	lambda_cid13_p4	lambda_cid13_p5	lambda_cid14_p0	/jointset/ground_pelvis/pelvis_tilt/accel	/jointset/ground_pelvis/pelvis_tx/accel	/jointset/ground_pelvis/pelvis_ty/accel	/jointset/hip_l/hip_flexion_l/accel	/jointset/hip_l/hip_adduction_l/accel	/jointset/hip_l/hip_rotation_l/accel	/jointset/back/lumbar_extension/accel	/jointset/patellofemoral_l/patellar_flexion_l/accel	/jointset/knee_l/knee_flexion_l/accel	/jointset/knee_l/knee_adduction_l/accel	/jointset/knee_l/knee_rotation_l/accel	/jointset/ankle_l/ankle_angle_l/accel	/jointset/subtalar_l/subtalar_angle_l/accel	gamma_cid13_p0	gamma_cid13_p1	gamma_cid13_p2	gamma_cid13_p3	gamma_cid13_p4	gamma_cid13_p5	gamma_cid14_p0
1	-0.4512482212021376	-0.0003657962883129646	0.598538480469195	1.686767301591539	-0.3476152463121266	0.1311597697008973	-0.4363311286735927	1.496531121679463	1.496531121679469	0.0593968318178098	-0.174531635816807	0.4348180975436945	0.2475539053545145	-0.14702558549624	-0.001067330738652403	0.03274142201058307	0.03343032378707814	0.0004586100512041117	-0.04888952770415885	3.918532029753192e-06	-0.1557432255164591	-0.1557432255164635	-0.01273989542849603	4.609908113591184e-06	-0.05600574296400052	-0.03316181670913464	-0.239980999427657	0.0353148262215818	-0.01196731827131391	-0.284384722063346	-0.045713562171539	0.0152777109158267	0.2088499206804068	-46.11736518610601	5.791044377497925	-6.174535337350975	7.137399248874215	-541.4275830291555	-71.34444971981651	-0.02387680483399648	1.506573885364916	0.1865124856042405	1.972986639594964	-6.5098771059981	-0.20382805901281	-1.488660193522567	-0.01858645856212001	-5.553735279914857	-5.553735279914908	-0.9061350868424578	-0.03211586434576093	-1.035820233259605	-0.9460829777114893	-2.427740193798219e-09	-1.420908717475831e-07	-5.414237154954525e-08	-1.250767167571574e-08	-5.296299855522908e-09	-1.789274327758455e-07	3.80918515493754e-09
1.01	-0.4526438296491895	-0.0003671336755395741	0.5989643160939458	1.686777190752116	-0.3476202478539834	0.1305985088660475	-0.4363311323430545	1.494696449857557	1.494696449857519	0.05922303738774221	-0.1745315920016522	0.4342062674781543	0.2471760118826114	-0.1320868832099828	0.0008064697259687936	0.05241532213408798	-0.03144009925631087	-0.001455645868189066	-0.06335582403330474	-4.626988367718726e-06	-0.2111825540510416	-0.2111825540510431	-0.02201373386780031	3.877828890148656e-06	-0.06637027627063495	-0.04241011101042618	-0.2403565944736181	0.03535537850999569	-0.0119709610414949	-0.283408601247527	-0.04595064107561914	0.01529384224058906	0.2090280340746108	-46.15711605701745	5.754439680613016	-6.126940566089574	7.032459059327744	-541.1887072344499	-71.20213942967762	-0.0238936860026511	1.488901691152028	0.188802075977047	1.96303273042429	-6.473765865761282	-0.1847203051476043	-1.424599865954345	0.00801521619587826	-5.537744845576907	-5.537744845576418	-0.9372334953036956	0.0158796592006304	-1.038279707580025	-0.9131491935304136	-2.650981141964202e-09	-1.841203010708924e-07	-7.70360535876999e-08	-2.099368813070818e-08	-9.198003142379307e-09	-2.255682078587964e-07	4.628896741475523e-09
1.02	-0.4538897744151998	-0.0003495354083026562	0.5995865789262708	1.686138747489812	-0.3476442911443818	0.1298927879652381	-0.4363312207046818	1.492307642109235	1.492307642109151	0.05895665951869882	-0.1745315691994938	0.4334904901139032	0.2467058461602572	-0.1170928492878903	0.002719800154053092	0.07202686352543383	-0.09623616078977688	-0.003349739657386841	-0.07778154089620282	-1.301990978451616e-05	-0.2665704107995013	-0.2665704107994996	-0.03125658322027192	4.073061174313062e-07	-0.07679520270585476	-0.05161626679941562	-0.240732189519555	0.03539593079842299	-0.01197460381171633	-0.2824324804317097	-0.04618771997970091	0.01530997356537328	0.2092061474688402	-46.20160133780922	5.717124968432818	-6.077474448430962	6.929444142783414	-541.064758001688	-71.06106390532372	-0.02391305211278749	1.517640212531948	0.1944184782968864	1.96051489316315	-6.495004804013501	-0.1997956329737397	-1.480544300273025	-0.01855593876590569	-5.543440922690281	-5.543440922690261	-0.8999372694759096	-0.03266355305562591	-1.047898858976631	-0.9376552752510587	-2.997138409329327e-09	-2.244464413167303e-07	-9.821079964459925e-08	-2.903854954038481e-08	-1.292825358698421e-08	-2.680481391851565e-07	5.072042510797674e-09
1.03	-0.4549854862454968	-0.0003125667409192919	0.6004045582257126	1.684852873009232	-0.3476871543695388	0.1290430160150329	-0.4363313745287339	1.489365331753426	1.489365331753364	0.05859809272202018	-0.1745315966973465	0.4326701281898255	0.2461438687276425	-0.1020388308659854	0.004684494829949542	0.09154994657082099	-0.1609108754487244	-0.005217735217876064	-0.09216175087325788	-1.593714924649877e-05	-0.3218711786603931	-0.321871178660391	-0.04044755661695488	-6.069827511089852e-06	-0.08729033497564774	-0.0607685346877667	-0.2408416957079932	0.03541155667005499	-0.01194609226729126	-0.2812977852734231	-0.04625683801540455	0.0153657869562245	0.2092170881570211	-46.16332504021368	5.640415390258585	-6.012966998094489	6.752174325956139	-540.6193183240933	-70.94056035304426	-0.02393847989609421	1.500885063562585	0.1990717238810448	1.945344187467786	-6.449526321924042	-0.1795047483246456	-1.415106357856644	0.009111547109318847	-5.52032356741517	-5.520323567415132	-0.9273153010666183	0.01529534717651605	-1.05230612869166	-0.9023533196487689	-3.344549924849546e-09	-2.647552010617776e-07	-1.193680055384246e-07	-3.707890936796637e-08	-1.665675451279062e-08	-3.104856129221636e-07	5.511345771780886e-09
1.04	-0.4559303374102647	-0.0002556357744479058	0.6014171961910565	1.682921087077038	-0.3477485381964496	0.128049772562771	-0.4363315032924811	1.485870627949083	1.485870627949049	0.0581478886060981	-0.1745317019383805	0.431744417799507	0.2454907004613402	-0.086920716182373	0.006712259971657473	0.1109585967058583	-0.2254184511112212	-0.007053860007893754	-0.1064758413077109	-8.007842879595214e-06	-0.3770491005063447	-0.3770491005063421	-0.04958404706571927	-1.514133342082343e-05	-0.09786489595387959	-0.06985443353698378	-0.2409512018964949	0.03542718254168853	-0.01191758072291694	-0.2801630901151353	-0.046325956051096	0.0154216003470868	0.2092280288451373	-46.12998524832842	5.56310854967846	-5.94669456435564	6.577267635137328	-540.2894753391847	-70.82184144309562	-0.02396648498215814	1.530459464873424	0.2070325714592027	1.93762831109318	-6.461577004723353	-0.1934214788794225	-1.467320391752612	-0.01638662959995522	-5.518871719702225	-5.518871719702189	-0.8890406798921725	-0.03318242751183061	-1.063784600664361	-0.9243814674242189	-4.016030897242393e-09	-3.024867013214203e-07	-1.377440746105073e-07	-4.366008550095236e-08	-2.086255228337263e-08	-3.490076580441576e-07	5.755001923462812e-09
1.05	-0.4567236060886047	-0.0001780890567648736	0.6026232955586602	1.680345092087517	-0.3478280991520487	0.1269136943054354	-0.4363316049448533	1.481824779680344	1.481824779680316	0.05760666957178257	-0.1745319025195446	0.4307124853568581	0.244747022698514	-0.0717146222571719	0.00880987620486242	0.1302370051190151	-0.2897499349009318	-0.008850222334071674	-0.1207254035636734	-2.096071579405951e-05	-0.4320980434406139	-0.4320980434406121	-0.05864853959209033	-2.253649372972547e-05	-0.1085423832145354	-0.07886758818362778	-0.2408248413161529	0.03544749341607156	-0.01185778202476916	-0.2788797209151601	-0.04628959437470477	0.01551017562502452	0.2090857535442916	-46.03964408203154	5.454002880935986	-5.866683383296852	6.367106545655834	-539.6902233289736	-70.71795306756412	-0.02400178913308902	1.518442916207099	0.2130349401352855	1.919301292771481	-6.414343396645303	-0.1714988078401536	-1.401628829899883	0.004954670878135196	-5.494530311086402	-5.494530311086535	-0.9134983323331501	0.01579561031326705	-1.072865907863667	-0.8876798888157895	-4.697639040162508e-09	-3.40137662222144e-07	-1.560332331569106e-07	-5.019566214348226e-08	-2.508326558035388e-08	-3.874073460219324e-07	5.992544102979073e-09
1.06	-0.457364262115722	-7.91844185728754e-05	0.6040214498476641	1.677126700393972	-0.3479253747705834	0.1256355494880649	-0.4363320952685704	1.477229117036103	1.477229117036095	0.05697513665352336	-0.1745321143181928	0.4295731510177823	0.2439136339041153	-0.05639818593742783	0.01098384407345066	0.1493695809859458	-0.3538977919126591	-0.010596792594379	-0.1348891533149107	-8.57421080967663e-05	-0.4870119756067673	-0.4870119756067663	-0.06764682385140131	-1.738482989159425e-05	-0.1193452752390895	-0.08779663985152479	-0.2406984807359347	0.0354678042904509	-0.01179798332667692	-0.2775963517151838	-0.04625323269829329	0.01559875090296973	0.2089434782433168	-45.9545143847445	5.344431818268359	-5.785023889889007	6.159833565416597	-539.2077773239915	-70.61668588925136	-0.0240398328730633	1.552527943781984	0.2223028985358772	1.908461801847964	-6.424851649126681	-0.1834630657052774	-1.450157890807561	-0.02675233347783121	-5.49186956607906	-5.491869566079004	-0.8757990264801224	-0.03067306268235612	-1.08886555344396	-0.9075608716747633	-6.59132722434509e-09	-3.762875526166251e-07	-1.688666254354744e-07	-5.474557529316203e-08	-2.923702155717102e-08	-4.148164212851743e-07	4.586035858531663e-09
1.07	-0.4578514662061403	4.197704374804817e-05	0.6056100992401566	1.673268042304284	-0.3480398836638334	0.124216155383137	-0.4363323008564123	1.472085150541941	1.472085150541977	0.05625406398453552	-0.174532221762117	0.4283253215258148	0.2429914722564248	-0.04105155659550185	0.01327473687562111	0.1683258842954437	-0.4177735205255511	-0.01229958749579062	-0.1489717284691219	0.0001562082658464774	-0.5417430339858326	-0.5417430339858335	-0.07655545107326894	-4.308076884581096e-06	-0.1302256289385781	-0.09661434649107779	-0.2408296180278668	0.0355466478958953	-0.0117188094958992	-0.2759227764214094	-0.0463450731601503	0.01568619245029666	0.2091132903014562	-45.89827343029987	5.227104856002281	-5.686928907550278	5.846544973054738	-538.677221824644	-70.45928907383805	-0.02408051077431333	1.524390110690641	0.2364138430361921	1.884045876807223	-6.359889477814756	-0.1628430479203945	-1.384638064192229	0.06640628588362552	-5.45798118509668	-5.457981185096954	-0.8965922107927705	0.01720660744453953	-1.088391791110623	-0.865586500391342	-8.549487751148023e-09	-4.123575988352421e-07	-1.814098173806424e-07	-5.918986804428593e-08	-3.338721597440497e-08	-4.416408894891326e-07	3.092078123447876e-09
